<svg width="32" height="32" viewBox="0 0 32 32" fill="none" xmlns="http://www.w3.org/2000/svg">
  <!-- 樱花图标 -->
  <circle cx="16" cy="16" r="14" fill="#fff5f7" stroke="#e91e63" stroke-width="2"/>
  <!-- 樱花花瓣 -->
  <path d="M16 8c-2 0-3 2-3 4s1 4 3 4 3-2 3-4-1-4-3-4z" fill="#e91e63"/>
  <path d="M16 16c2 0 4 1 4 3s-2 3-4 3-4-1-4-3 2-3 4-3z" fill="#e91e63"/>
  <path d="M24 16c0-2-2-3-4-3s-4 1-4 3 2 3 4 3 4-1 4-3z" fill="#e91e63"/>
  <path d="M8 16c0 2 2 3 4 3s4-1 4-3-2-3-4-3-4 1-4 3z" fill="#e91e63"/>
  <path d="M16 24c2 0 3-2 3-4s-1-4-3-4-3 2-3 4 1 4 3 4z" fill="#e91e63"/>
  <!-- 樱叶绿点缀 -->
  <circle cx="16" cy="16" r="2" fill="#4ade80"/>
</svg>
