<svg width="32" height="32" viewBox="0 0 16 16" xmlns="http://www.w3.org/2000/svg">
  <title>OumaShu Pixel Sakura</title>
  <style>
    rect{shape-rendering:crispEdges}
  </style>
  <!-- 像素风配色 -->
  <!-- 背景透明，使用网格像素渲染一朵樱花 -->
  <g id="pixels">
    <!-- 轮廓（深樱红） -->
    <g fill="#ad1457">
      <rect x="7" y="1" width="1" height="1"/>
      <rect x="6" y="2" width="3" height="1"/>
      <rect x="5" y="3" width="1" height="1"/>
      <rect x="10" y="3" width="1" height="1"/>
      <rect x="4" y="6" width="1" height="1"/>
      <rect x="11" y="6" width="1" height="1"/>
      <rect x="3" y="9" width="1" height="1"/>
      <rect x="12" y="9" width="1" height="1"/>
      <rect x="4" y="12" width="1" height="1"/>
      <rect x="11" y="12" width="1" height="1"/>
    </g>

    <!-- 花瓣（樱花红） -->
    <g fill="#e91e63">
      <!-- 上瓣 -->
      <rect x="7" y="2" width="1" height="1"/>
      <rect x="6" y="3" width="3" height="1"/>
      <rect x="6" y="4" width="3" height="1"/>
      <rect x="6" y="5" width="3" height="1"/>
      <!-- 左瓣 -->
      <rect x="4" y="7" width="2" height="1"/>
      <rect x="3" y="8" width="3" height="1"/>
      <rect x="4" y="9" width="2" height="1"/>
      <!-- 右瓣 -->
      <rect x="10" y="7" width="2" height="1"/>
      <rect x="10" y="8" width="3" height="1"/>
      <rect x="10" y="9" width="2" height="1"/>
      <!-- 下瓣 -->
      <rect x="6" y="10" width="3" height="1"/>
      <rect x="6" y="11" width="3" height="1"/>
      <rect x="7" y="12" width="1" height="1"/>
    </g>

    <!-- 花瓣高光（浅粉） -->
    <g fill="#ffc0cb">
      <rect x="7" y="4" width="1" height="1"/>
      <rect x="5" y="8" width="1" height="1"/>
      <rect x="11" y="8" width="1" height="1"/>
      <rect x="7" y="11" width="1" height="1"/>
    </g>

    <!-- 花心（复古黄） -->
    <g fill="#ffcf33">
      <rect x="7" y="7" width="1" height="1"/>
      <rect x="7" y="8" width="1" height="1"/>
      <rect x="8" y="7" width="1" height="1"/>
      <rect x="8" y="8" width="1" height="1"/>
    </g>

    <!-- 叶子点缀（樱叶绿） -->
    <g fill="#4ade80">
      <rect x="9" y="12" width="1" height="1"/>
    </g>
  </g>
</svg>
