<svg width="64" height="64" viewBox="0 0 32 32" xmlns="http://www.w3.org/2000/svg">
  <title>OumaShu Pixel Sakura Large</title>
  <style>
    rect{shape-rendering:crispEdges}
  </style>
  <!-- 使用32x32像素网格绘制更大尺寸像素樱花 -->
  <!-- 轮廓 -->
  <g fill="#ad1457">
    <rect x="15" y="2" width="2" height="2"/>
    <rect x="13" y="4" width="6" height="2"/>
    <rect x="11" y="6" width="2" height="2"/>
    <rect x="21" y="6" width="2" height="2"/>
    <rect x="8" y="12" width="2" height="2"/>
    <rect x="22" y="12" width="2" height="2"/>
    <rect x="6" y="18" width="2" height="2"/>
    <rect x="24" y="18" width="2" height="2"/>
    <rect x="8" y="24" width="2" height="2"/>
    <rect x="22" y="24" width="2" height="2"/>
  </g>
  <!-- 花瓣 -->
  <g fill="#e91e63">
    <!-- 上瓣 -->
    <rect x="15" y="4" width="2" height="2"/>
    <rect x="13" y="6" width="6" height="2"/>
    <rect x="13" y="8" width="6" height="2"/>
    <rect x="13" y="10" width="6" height="2"/>
    <!-- 左瓣 -->
    <rect x="8" y="14" width="4" height="2"/>
    <rect x="6" y="16" width="6" height="2"/>
    <rect x="8" y="18" width="4" height="2"/>
    <!-- 右瓣 -->
    <rect x="20" y="14" width="4" height="2"/>
    <rect x="20" y="16" width="6" height="2"/>
    <rect x="20" y="18" width="4" height="2"/>
    <!-- 下瓣 -->
    <rect x="13" y="20" width="6" height="2"/>
    <rect x="13" y="22" width="6" height="2"/>
    <rect x="15" y="24" width="2" height="2"/>
  </g>
  <!-- 高光 -->
  <g fill="#ffc0cb">
    <rect x="15" y="10" width="2" height="2"/>
    <rect x="11" y="16" width="2" height="2"/>
    <rect x="21" y="16" width="2" height="2"/>
    <rect x="15" y="22" width="2" height="2"/>
  </g>
  <!-- 花心 -->
  <g fill="#ffcf33">
    <rect x="15" y="15" width="2" height="2"/>
    <rect x="17" y="15" width="2" height="2"/>
    <rect x="15" y="17" width="2" height="2"/>
    <rect x="17" y="17" width="2" height="2"/>
  </g>
  <!-- 叶子点缀 -->
  <g fill="#4ade80">
    <rect x="19" y="24" width="2" height="2"/>
  </g>
</svg>
